<svg xmlns="http://www.w3.org/2000/svg" viewBox="0 0 446.76 215.29" width="446.76" height="215.29"><defs><style>.cls-1{fill:#52423b}</style></defs><g id="Layer_2"><g id="svg2"><path id="path22" d="M386.87 88.81a23.39 23.39 0 0 0-14.15-14.1c-7.59-2.84-23.33 1.26-30.67 13.17-16.58 26.89-9.25 61.71 15.72 49.15 4.92-2.75 2.67 4.74.65 11.52-10.39 35-49 63.87-58.67 51.71-7.64-11.55 39.77-44.91 51.73-51.92 2.38-1.86-6.57-.17-6.57-.17s-27.47 3.83-48.61 24.26c-20.22 19.56 14 51.68 34.62 40.58 46.26-24.89 45.83-75.77 45.84-80.26 0-6.85.81-14.25-8.24-16.2-6.44-1.4-3.66 4-5.7 10.2-3.73 3.87-16.19 15.93-17.86 1.81-1.81-15.27 13.81-51.84 31.42-29.13-.37 1.67-7.42 7.74-5 8.76 5.4 1.68 11.9 5 14.58 7.08 2.21 2.31 10.52-19.79 4.49-28-.75-1-3.1 2.42-3.54 1.58zM280.16 68.88c0-16.34-36.3-15.55-29.67 7.25.43 1.5-3.9 4.54-3.21 5.35 1.13 1.35 6.26-2.63 8.55-1.5 5.22 2.57 24.34 3.68 24.33-11.1zm36.27 80.65c-2.69-.56-3.91-3-3.14-6.11 5.08-20.6 34.89-57.46 17.14-67.83-12.63-7.38-28.05 6.82-35.9 17.39-1.44-2.28-10.64-6.46-14.36-3-5.6 5.33-16.52 31.75-24.1 39.4-5.81 4.72-5.53-7.87-1.66-16.69 5-11.34 9.32-14.49 9.15-16.8-.17-4.69-13.54-11.11-17.22-6.63-2.69 2.93-7.46 16.5-9 31.75-1.61 3.4-8.33 10.56-10.88 10.37-17.14-.84 17.26-75.61 40-100.74 1-1.16 3.05-3.11 4.51-3.11 4.65 0 1.32 4.34 4.12 4.85 3.05.57 4.56-9.91 1.86-14.25-4.35-7-14-10.43-20.95-3.07-33.79 37.25-56.49 121.33-34.95 124 7.89 1 12.41-3.27 17.27-9.24 2.45 7.67 8.86 10.39 15.63 8.53 11.88-3.25 21.46-31.1 26.67-31.7-.92 2.46-3.07 7.36-10.12 24.3-2.07 5 11 7.75 13.12 2.07 5-12.25 8.64-23.44 12.91-30.81 1.89-4.7 8.89-11 13.14-12.09 1.93-.52 5.56 1.11 5.45 3.94.23 9.27-11.91 28.42-12.87 42.19-.94 13.43 5.6 18.11 9.63 18.76 11.12 1.82 18.85-6.39 15.46-9.48-4.14-3.75-7.63 4.71-10.91 4zM420 72.67c-9 2.52-21 9.68-24.57 26.41-.76 3.29-.69 8.18 2.46 10 2.24 1 6.45-1.9 5.15-4.93-2.95-6.87 1.2-17.84 8.82-21.56 13.92-6.59 20.6 6.54 17 20.08-2.75 10.33-12.13 18.33-26.27 17.71 1.11-4.27 1.39-8.57-1.76-7.32-8.38 3.31-12.92 4.55-16.44 5.77-4.21 1.46 7.58 26.72 11.31 25.35 1.58-2.19 2.51-5.88 3.33-5.65 17 4.77 32.28-4.09 39.18-14.3C456.34 99 443.43 66.12 420 72.67zM201.76 92.43c-3.16.58-10.49 4.75-15.8 18.38-3 9.91-2.13 18.44 3.13 16.39 10.3-5 17.26-23.35 17.54-28.43.77-7.48-4.19-6.44-4.87-6.34zm-15.1 44.85c-15.71 5.09-36.31-15.3-2.48-56a1.6 1.6 0 0 0 .56-1.28s.18-5.75 4.86-6.61c5.72-1 17-2.77 23.48 7.07 7.65 11.64-8.19 50.88-26.42 56.8zm-25.91-7.37c-1.41.52-2.54 2.73-3.48 3.3-4.13 2.3-8.57-2.26-3.56-14.78s16.23-29.39 18-31.56c2.27-2.84-2.31-10.8-4.85-14.9S150.1 83.88 139 88.49c2.29-6.83 6.57-23.5-7.46-21.79-12.68 1.54-20.09 27.65-2.66 28.73-.23 5.58-9.29 17.5-13.09 20.74-9.17 8.49-26.4 17.73-28.4-1.67C84.6 87.71 108 79.88 109 94.17c.09 4-1.57 9.32-5.47 11.65-3.29 2-4.62.14-7.42 1.47-4.37 2.09-3.32 6.35.32 6.78 2.35.27 5.85-1.18 9.54-4 10.37-7.8 13.88-23.43 7.39-30.55-11-11.56-53.9 26.16-43.29 50 11.3 16.91 38.66 7.66 52.84-10.83 9.88-12 12.75-21 13.57-23.62a111 111 0 0 0 12.42-6.49c-5 9.54-22.53 45 4.42 49.72 7.21 1.27 11.44-3.58 11.51-6.31.04-1.79-2.76-2.56-4.08-2.08zM126.87 11.52c-1.41 9.55-11.39 12.91-22.71 16-4.88 1.79-23.38.75-40.62 98.94-.56 3.24-2.07 9.88-5.44 11.86C36.66 150.81 17.86 67.19 9.42 75 6.52 78.1 3 80.94.58 78.29c-1.74-1.9.8-5.4 2.86-7.41 5.45-5.32 14.91-9.72 21.56-8.37 13.36 2.7 15.53 12.73 19.56 27.74C47 99.26 55 136.34 58 125.83 62.79 84.64 68.17 42 86.29 16 102-6.51 129-2.65 126.87 11.52" class="cls-1"/></g></g></svg>